<svg width="20" height="20" viewBox="0 0 20 20" fill="none" xmlns="http://www.w3.org/2000/svg">
<path d="M17.071 2.92903C16.1434 1.99911 15.0412 1.26164 13.8277 0.758991C12.6143 0.25634 11.3134 -0.00158461 9.99998 3.50476e-05C8.68625 -0.00345415 7.38488 0.253618 6.17115 0.756376C4.95743 1.25913 3.85545 1.9976 2.92899 2.92903C1.04 4.81803 0 7.33002 0 10C0 12.67 1.04 15.182 2.92899 17.071C4.81799 18.96 7.32999 20 9.99998 20C12.67 20 15.182 18.96 17.071 17.071C18.0024 16.1445 18.7409 15.0426 19.2436 13.8288C19.7464 12.6151 20.0035 11.3137 20 10C20.0016 8.68657 19.7437 7.38574 19.241 6.17227C18.7384 4.9588 18.0009 3.85661 17.071 2.92903ZM15.657 15.657C14.146 17.168 12.137 18 9.99998 18C7.86299 18 5.85399 17.168 4.34299 15.657C2.832 14.146 2 12.137 2 10C2 7.86302 2.832 5.85403 4.34299 4.34303C5.08417 3.59786 5.96579 3.00709 6.93681 2.60491C7.90783 2.20274 8.94897 1.99714 9.99998 2.00003V10H18C18.0029 11.051 17.7973 12.0922 17.3951 13.0632C16.9929 14.0342 16.4021 14.9158 15.657 15.657Z" fill="#0063F5"/>
</svg>
