<svg width="20" height="20" viewBox="0 0 20 20" fill="none" xmlns="http://www.w3.org/2000/svg">
<path d="M7.41083 0V5.67083L2.5 2.835L0 7.16667L4.91083 10L0 12.8333L2.5 17.165L7.41083 14.3292V20H12.4108V14.3292L17.3217 17.165L19.8217 12.8333L14.9108 10L19.8217 7.16667L17.3217 2.835L12.4108 5.67083V0H7.41083ZM9.0775 1.66667H10.7442V8.55833L16.7108 5.1125L17.5442 6.55417L11.5775 10L17.5442 13.4458L16.7108 14.8875L10.7442 11.4417V18.3333H9.0775V11.4417L3.11083 14.8875L2.2775 13.4458L8.24417 10L2.2775 6.55417L3.11083 5.1125L9.0775 8.55833V1.66667Z" fill="#0063F5"/>
</svg>
